{
	"asset":{
		"generator":"Khronos glTF Blender I/O v4.4.56",
		"version":"2.0"
	},
	"scene":0,
	"scenes":[
		{
			"name":"Scene",
			"nodes":[
				0,
				1,
				2
			]
		}
	],
	"nodes":[
		{
			"mesh":0,
			"name":"wooden_crate_01_lid"
		},
		{
			"mesh":1,
			"name":"wooden_crate_01"
		},
		{
			"mesh":2,
			"name":"wooden_crate_01_latch"
		}
	],
	"materials":[
		{
			"doubleSided":true,
			"name":"wooden_crate_01",
			"normalTexture":{
				"index":0
			},
			"pbrMetallicRoughness":{
				"baseColorTexture":{
					"index":1
				},
				"metallicRoughnessTexture":{
					"index":2
				}
			}
		}
	],
	"meshes":[
		{
			"name":"Cube.005",
			"primitives":[
				{
					"attributes":{
						"POSITION":0,
						"NORMAL":1,
						"TEXCOORD_0":2
					},
					"indices":3,
					"material":0
				}
			]
		},
		{
			"name":"Cube.020",
			"primitives":[
				{
					"attributes":{
						"POSITION":4,
						"NORMAL":5,
						"TEXCOORD_0":6
					},
					"indices":7,
					"material":0
				}
			]
		},
		{
			"name":"Cube.001",
			"primitives":[
				{
					"attributes":{
						"POSITION":8,
						"NORMAL":9,
						"TEXCOORD_0":10
					},
					"indices":11,
					"material":0
				}
			]
		}
	],
	"textures":[
		{
			"sampler":0,
			"source":0
		},
		{
			"sampler":0,
			"source":1
		},
		{
			"sampler":0,
			"source":2
		}
	],
	"images":[
		{
			"mimeType":"image/png",
			"name":"wooden_crate_01_nor_gl",
			"uri":"wooden_crate_01_nor_gl.png"
		},
		{
			"mimeType":"image/jpeg",
			"name":"wooden_crate_01_diff",
			"uri":"wooden_crate_01_diff.jpg"
		},
		{
			"mimeType":"image/png",
			"name":"wooden_crate_01_metal-wooden_crate_01_rough",
			"uri":"wooden_crate_01_metal-wooden_crate_01_rough.png"
		}
	],
	"accessors":[
		{
			"bufferView":0,
			"componentType":5126,
			"count":596,
			"max":[
				0.3539096713066101,
				-0.15831506252288818,
				0.1961396187543869
			],
			"min":[
				-0.3539096713066101,
				-0.20053765177726746,
				-0.1961396187543869
			],
			"type":"VEC3"
		},
		{
			"bufferView":1,
			"componentType":5126,
			"count":596,
			"type":"VEC3"
		},
		{
			"bufferView":2,
			"componentType":5126,
			"count":596,
			"type":"VEC2"
		},
		{
			"bufferView":3,
			"componentType":5123,
			"count":2076,
			"type":"SCALAR"
		},
		{
			"bufferView":4,
			"componentType":5126,
			"count":3706,
			"max":[
				0.4126364588737488,
				-0.1860249638557434,
				0.2128141224384308
			],
			"min":[
				-0.4126364588737488,
				-0.5079333186149597,
				-0.19549614191055298
			],
			"type":"VEC3"
		},
		{
			"bufferView":5,
			"componentType":5126,
			"count":3706,
			"type":"VEC3"
		},
		{
			"bufferView":6,
			"componentType":5126,
			"count":3706,
			"type":"VEC2"
		},
		{
			"bufferView":7,
			"componentType":5123,
			"count":16524,
			"type":"SCALAR"
		},
		{
			"bufferView":8,
			"componentType":5126,
			"count":384,
			"max":[
				0.009643923491239548,
				-0.16420996189117432,
				0.2071036398410797
			],
			"min":[
				-0.016070956364274025,
				-0.2609061598777771,
				0.1312473714351654
			],
			"type":"VEC3"
		},
		{
			"bufferView":9,
			"componentType":5126,
			"count":384,
			"type":"VEC3"
		},
		{
			"bufferView":10,
			"componentType":5126,
			"count":384,
			"type":"VEC2"
		},
		{
			"bufferView":11,
			"componentType":5123,
			"count":1128,
			"type":"SCALAR"
		}
	],
	"bufferViews":[
		{
			"buffer":0,
			"byteLength":7152,
			"byteOffset":0,
			"target":34962
		},
		{
			"buffer":0,
			"byteLength":7152,
			"byteOffset":7152,
			"target":34962
		},
		{
			"buffer":0,
			"byteLength":4768,
			"byteOffset":14304,
			"target":34962
		},
		{
			"buffer":0,
			"byteLength":4152,
			"byteOffset":19072,
			"target":34963
		},
		{
			"buffer":0,
			"byteLength":44472,
			"byteOffset":23224,
			"target":34962
		},
		{
			"buffer":0,
			"byteLength":44472,
			"byteOffset":67696,
			"target":34962
		},
		{
			"buffer":0,
			"byteLength":29648,
			"byteOffset":112168,
			"target":34962
		},
		{
			"buffer":0,
			"byteLength":33048,
			"byteOffset":141816,
			"target":34963
		},
		{
			"buffer":0,
			"byteLength":4608,
			"byteOffset":174864,
			"target":34962
		},
		{
			"buffer":0,
			"byteLength":4608,
			"byteOffset":179472,
			"target":34962
		},
		{
			"buffer":0,
			"byteLength":3072,
			"byteOffset":184080,
			"target":34962
		},
		{
			"buffer":0,
			"byteLength":2256,
			"byteOffset":187152,
			"target":34963
		}
	],
	"samplers":[
		{
			"magFilter":9729,
			"minFilter":9987
		}
	],
	"buffers":[
		{
			"byteLength":189408,
			"uri":"wooden_crate_01_4k.bin"
		}
	]
}
